<svg width="34" height="44" viewBox="0 0 34 44" fill="none" xmlns="http://www.w3.org/2000/svg">
<path d="M26.0802 25.42C26.0802 26.54 25.4802 27.58 24.5102 28.15L18.5702 31.58C17.6002 32.14 16.4002 32.14 15.4202 31.58L9.48016 28.15C8.51016 27.59 7.91016 26.55 7.91016 25.42V18.58C7.91016 17.46 8.51016 16.42 9.48016 15.85L15.4202 12.42C16.3902 11.86 17.5902 11.86 18.5702 12.42L24.5102 15.85C25.4802 16.42 26.0802 17.45 26.0802 18.58V25.42Z" stroke="#9CA3AF" stroke-width="1.5" stroke-linecap="round" stroke-linejoin="round"/>
<path fill-rule="evenodd" clip-rule="evenodd" d="M16.9999 20.9998C15.7131 20.9998 14.6699 19.9566 14.6699 18.6698C14.6699 17.383 15.7131 16.3398 16.9999 16.3398C18.2867 16.3398 19.3299 17.383 19.3299 18.6698C19.3299 19.9566 18.2867 20.9998 16.9999 20.9998Z" stroke="#9CA3AF" stroke-width="1.5" stroke-linecap="round" stroke-linejoin="round"/>
<path d="M21 26.6603C21 24.8603 19.21 23.4004 17 23.4004C14.79 23.4004 13 24.8603 13 26.6603" stroke="#9CA3AF" stroke-width="1.5" stroke-linecap="round" stroke-linejoin="round"/>
</svg>
