<svg width="15" height="20" viewBox="0 0 15 20" fill="none" xmlns="http://www.w3.org/2000/svg">
<path d="M14.8387 5.80661C14.8387 5.54995 14.7368 5.3038 14.5553 5.12231C14.3738 4.94083 14.1276 4.83887 13.871 4.83887C13.6143 4.83887 13.3682 4.94083 13.1867 5.12231C13.0052 5.3038 12.9032 5.54995 12.9032 5.80661V7.41951C12.9032 7.84728 12.7333 8.25753 12.4308 8.56001C12.1283 8.86248 11.7181 9.03242 11.2903 9.03242H8.3871V5.80661C8.3871 5.54995 8.28514 5.3038 8.10365 5.12231C7.92216 4.94083 7.67602 4.83887 7.41935 4.83887C7.16269 4.83887 6.91654 4.94083 6.73506 5.12231C6.55357 5.3038 6.45161 5.54995 6.45161 5.80661V9.03242H1.93548V5.80661C1.93548 5.54995 1.83353 5.3038 1.65204 5.12231C1.47055 4.94083 1.2244 4.83887 0.967742 4.83887C0.711081 4.83887 0.464932 4.94083 0.283445 5.12231C0.101958 5.3038 0 5.54995 0 5.80661V14.1937C0 14.4504 0.101958 14.6965 0.283445 14.878C0.464932 15.0595 0.711081 15.1614 0.967742 15.1614C1.2244 15.1614 1.47055 15.0595 1.65204 14.878C1.83353 14.6965 1.93548 14.4504 1.93548 14.1937V10.9679H6.45161V14.1937C6.45161 14.4504 6.55357 14.6965 6.73506 14.878C6.91654 15.0595 7.16269 15.1614 7.41935 15.1614C7.67602 15.1614 7.92216 15.0595 8.10365 14.878C8.28514 14.6965 8.3871 14.4504 8.3871 14.1937V10.9679H11.2903C12.2314 10.9679 13.134 10.5941 13.7994 9.9286C14.4649 9.26315 14.8387 8.3606 14.8387 7.41951V5.80661Z" fill="#9CA3AF"/>
<path d="M0.967742 19.9999C1.50221 19.9999 1.93548 19.5667 1.93548 19.0322C1.93548 18.4977 1.50221 18.0645 0.967742 18.0645C0.433273 18.0645 0 18.4977 0 19.0322C0 19.5667 0.433273 19.9999 0.967742 19.9999Z" fill="#9CA3AF"/>
<path d="M7.4194 19.9999C7.95387 19.9999 8.38714 19.5667 8.38714 19.0322C8.38714 18.4977 7.95387 18.0645 7.4194 18.0645C6.88493 18.0645 6.45166 18.4977 6.45166 19.0322C6.45166 19.5667 6.88493 19.9999 7.4194 19.9999Z" fill="#9CA3AF"/>
<path d="M0.967742 1.93548C1.50221 1.93548 1.93548 1.50221 1.93548 0.967742C1.93548 0.433273 1.50221 0 0.967742 0C0.433273 0 0 0.433273 0 0.967742C0 1.50221 0.433273 1.93548 0.967742 1.93548Z" fill="#9CA3AF"/>
<path d="M7.4194 1.93548C7.95387 1.93548 8.38714 1.50221 8.38714 0.967742C8.38714 0.433273 7.95387 0 7.4194 0C6.88493 0 6.45166 0.433273 6.45166 0.967742C6.45166 1.50221 6.88493 1.93548 7.4194 1.93548Z" fill="#9CA3AF"/>
<path d="M13.8711 1.93548C14.4055 1.93548 14.8388 1.50221 14.8388 0.967742C14.8388 0.433273 14.4055 0 13.8711 0C13.3366 0 12.9033 0.433273 12.9033 0.967742C12.9033 1.50221 13.3366 1.93548 13.8711 1.93548Z" fill="#9CA3AF"/>
</svg>
