<svg width="24" height="24" viewBox="0 0 24 24" fill="none" xmlns="http://www.w3.org/2000/svg">
<path d="M21.1404 17.5312C20.396 16.7812 18.5932 15.6867 17.7185 15.2456C16.5795 14.6718 16.4857 14.6249 15.5904 15.2901C14.9932 15.734 14.5962 16.1306 13.8973 15.9815C13.1984 15.8324 11.6796 14.992 10.3498 13.6663C9.01994 12.3407 8.13072 10.7779 7.98119 10.0813C7.83166 9.38478 8.23478 8.99244 8.67447 8.39385C9.29415 7.5501 9.24728 7.40947 8.71759 6.27041C8.30462 5.38447 7.17822 3.59853 6.42541 2.85791C5.62009 2.06244 5.62009 2.20306 5.10119 2.41869C4.67872 2.5964 4.27343 2.81246 3.89041 3.06416C3.14041 3.56244 2.72416 3.97635 2.43306 4.59838C2.14197 5.22041 2.01119 6.67869 3.51447 9.40963C5.01775 12.1406 6.07244 13.537 8.2554 15.7138C10.4384 17.8907 12.117 19.0612 14.5709 20.4374C17.6065 22.1376 18.7709 21.8062 19.3948 21.5156C20.0187 21.2249 20.4345 20.8124 20.9337 20.0624C21.186 19.6801 21.4026 19.2752 21.5806 18.8531C21.7967 18.336 21.9373 18.336 21.1404 17.5312Z" stroke="#1E40AF" stroke-width="1.5" stroke-miterlimit="10"/>
</svg>
