<svg width="34" height="44" viewBox="0 0 34 44" fill="none" xmlns="http://www.w3.org/2000/svg">
<path d="M26 18.7481H8C7.59 18.7481 7.25 18.4081 7.25 17.9981C7.25 17.5881 7.59 17.2481 8 17.2481H9.02L9.4 15.4381C9.76 13.6881 10.51 12.0781 13.49 12.0781H20.51C23.49 12.0781 24.24 13.6881 24.6 15.4381L24.98 17.2481H26C26.41 17.2481 26.75 17.5881 26.75 17.9981C26.75 18.4081 26.41 18.7481 26 18.7481Z" fill="#9CA3AF"/>
<path fill-rule="evenodd" clip-rule="evenodd" d="M23.3815 20.25H10.6216C7.41155 20.25 6.98155 22.01 6.82155 23.66L6.26155 29.75C6.19155 30.51 6.44155 31.27 6.96155 31.84C7.49155 32.42 8.24155 32.75 9.04155 32.75H10.9216C12.5416 32.75 12.8516 31.82 13.0516 31.21L13.2516 30.61C13.4816 29.92 13.5416 29.75 14.4416 29.75H19.5616C20.4616 29.75 20.4916 29.85 20.7516 30.61L20.9516 31.21C21.1516 31.82 21.4616 32.75 23.0816 32.75H24.9615C25.7516 32.75 26.5116 32.42 27.0416 31.84C27.5616 31.27 27.8116 30.51 27.7416 29.75L27.1816 23.66C27.0316 22.01 26.5915 20.25 23.3815 20.25ZM11.0016 25.75C10.5916 25.75 10.2516 25.41 10.2516 25C10.2516 24.59 10.5916 24.25 11.0016 24.25H14.0016C14.4116 24.25 14.7516 24.59 14.7516 25C14.7516 25.41 14.4116 25.75 14.0016 25.75H11.0016ZM20.0016 25.75C19.5916 25.75 19.2516 25.41 19.2516 25C19.2516 24.59 19.5916 24.25 20.0016 24.25H23.0016C23.4116 24.25 23.7516 24.59 23.7516 25C23.7516 25.41 23.4116 25.75 23.0016 25.75H20.0016Z" fill="#9CA3AF"/>
</svg>
