<svg width="20" height="20" viewBox="0 0 20 20" fill="none" xmlns="http://www.w3.org/2000/svg">
<path d="M7.94417 9.29167C7.80324 9.43261 7.69147 9.59995 7.61525 9.78413C7.53904 9.9683 7.49988 10.1657 7.5 10.365V12.5H9.64833C10.0508 12.5 10.4375 12.34 10.7225 12.055L17.0558 5.71833C17.1971 5.57745 17.3091 5.41009 17.3856 5.22584C17.462 5.04159 17.5014 4.84407 17.5014 4.64458C17.5014 4.4451 17.462 4.24758 17.3856 4.06333C17.3091 3.87908 17.1971 3.71172 17.0558 3.57083L16.43 2.945C16.2891 2.80365 16.1217 2.69149 15.9374 2.61497C15.753 2.53845 15.5554 2.49905 15.3558 2.49905C15.1563 2.49905 14.9586 2.53845 14.7743 2.61497C14.59 2.69149 14.4226 2.80365 14.2817 2.945L7.94417 9.29167Z" stroke="white" stroke-linecap="round" stroke-linejoin="round"/>
<path d="M17.5 10C17.5 13.5358 17.5 15.3033 16.4017 16.4017C15.3033 17.5 13.535 17.5 10 17.5C6.465 17.5 4.69667 17.5 3.59833 16.4017C2.5 15.3033 2.5 13.535 2.5 10C2.5 6.465 2.5 4.69667 3.59833 3.59833C4.69667 2.5 6.465 2.5 10 2.5" stroke="white" stroke-linecap="round" stroke-linejoin="round"/>
</svg>
