<svg width="16" height="17" viewBox="0 0 16 17" fill="none" xmlns="http://www.w3.org/2000/svg">
<path d="M3.3335 8.08529V2.75195M12.6668 13.4186V11.4186M3.3335 13.4186V10.752M12.6668 8.75195V2.75195M8.00016 4.75195V2.75195M8.00016 13.4186V7.41862" stroke="#1F2937" stroke-linecap="round"/>
<path d="M3.33333 10.7521C4.06971 10.7521 4.66667 10.1552 4.66667 9.41878C4.66667 8.6824 4.06971 8.08545 3.33333 8.08545C2.59695 8.08545 2 8.6824 2 9.41878C2 10.1552 2.59695 10.7521 3.33333 10.7521Z" stroke="#1F2937" stroke-linecap="round"/>
<path d="M7.99984 7.41862C8.73622 7.41862 9.33317 6.82167 9.33317 6.08529C9.33317 5.34891 8.73622 4.75195 7.99984 4.75195C7.26346 4.75195 6.6665 5.34891 6.6665 6.08529C6.6665 6.82167 7.26346 7.41862 7.99984 7.41862Z" stroke="#1F2937" stroke-linecap="round"/>
<path d="M12.6668 11.4186C13.4032 11.4186 14.0002 10.8217 14.0002 10.0853C14.0002 9.34891 13.4032 8.75195 12.6668 8.75195C11.9304 8.75195 11.3335 9.34891 11.3335 10.0853C11.3335 10.8217 11.9304 11.4186 12.6668 11.4186Z" stroke="#1F2937" stroke-linecap="round"/>
</svg>
