<svg width="20" height="21" viewBox="0 0 20 21" fill="none" xmlns="http://www.w3.org/2000/svg">
<g clip-path="url(#clip0_6638_149228)">
<path d="M9.94439 10.4111C11.4444 10.4111 12.6111 9.18888 12.6111 7.68888C12.6111 6.18888 11.3888 5.02222 9.88883 5.02222C8.38883 5.02222 7.22217 6.24444 7.22217 7.68888C7.22217 9.18888 8.44439 10.4111 9.94439 10.4111ZM9.88883 6.13333C9.94439 6.13333 9.94439 6.13333 9.88883 6.13333C10.7777 6.13333 11.4999 6.85555 11.4999 7.74444C11.4999 8.63333 10.7777 9.29999 9.88883 9.29999C8.99995 9.29999 8.33328 8.57777 8.33328 7.74444C8.33328 6.85555 9.0555 6.13333 9.88883 6.13333Z" fill="#9CA3AF"/>
<path d="M18.1668 10.0779C17.1113 9.13344 15.7224 8.63344 14.2779 8.689H13.8335C13.7224 9.13344 13.5557 9.52233 13.3335 9.85566C13.6668 9.80011 13.9446 9.80011 14.2779 9.80011C15.3335 9.74455 16.3891 10.0779 17.2224 10.689V14.689H18.3335V10.2446L18.1668 10.0779Z" fill="#9CA3AF"/>
<path d="M12.9999 5.13341C13.2777 4.46674 14.0555 4.13341 14.7777 4.41119C15.4444 4.68896 15.7777 5.46674 15.4999 6.18896C15.2777 6.68896 14.7777 7.0223 14.2777 7.0223C14.1666 7.0223 13.9999 7.0223 13.8888 6.96674C13.9444 7.24452 13.9444 7.5223 13.9444 7.74452V8.07785C14.0555 8.07785 14.1666 8.13341 14.2777 8.13341C15.6666 8.13341 16.7777 7.0223 16.7777 5.68896C16.7777 4.30008 15.6666 3.18896 14.3333 3.18896C13.4444 3.18896 12.6666 3.63341 12.2222 4.41119C12.4999 4.57785 12.7777 4.80008 12.9999 5.13341Z" fill="#9CA3AF"/>
<path d="M6.6665 9.91121C6.44428 9.57788 6.27762 9.18899 6.1665 8.74454H5.72206C4.27762 8.68899 2.88873 9.18899 1.83317 10.0779L1.6665 10.2445V14.689H2.77762V10.689C3.6665 10.0779 4.6665 9.74454 5.72206 9.8001C6.05539 9.8001 6.38873 9.85565 6.6665 9.91121Z" fill="#9CA3AF"/>
<path d="M5.72215 8.07785C5.83326 8.07785 5.94437 8.07785 6.05548 8.02229V7.68896C6.05548 7.41118 6.05548 7.1334 6.11104 6.91118C5.99993 6.96674 5.83326 6.96674 5.72215 6.96674C4.99993 6.96674 4.38881 6.35563 4.38881 5.6334C4.38881 4.91118 4.99993 4.30007 5.72215 4.30007C6.2777 4.30007 6.7777 4.6334 6.99993 5.1334C7.22215 4.85563 7.55548 4.57785 7.83326 4.35563C7.11104 3.18896 5.61104 2.80007 4.44437 3.52229C3.2777 4.24451 2.88881 5.74451 3.61104 6.91118C4.05548 7.6334 4.83326 8.07785 5.72215 8.07785Z" fill="#9CA3AF"/>
<path d="M14.5001 13.4112L14.389 13.2445C13.2779 12.0223 11.7223 11.3001 10.0557 11.3557C8.389 11.3001 6.77789 12.0223 5.66678 13.2445L5.55566 13.4112V17.6334C5.55566 18.1334 5.94455 18.5779 6.50011 18.5779H13.6112C14.1112 18.5779 14.5557 18.1334 14.5557 17.6334V13.4112H14.5001ZM13.389 17.4668H6.66678V13.8001C7.55566 12.9112 8.77789 12.4668 10.0557 12.4668C11.2779 12.4112 12.5001 12.9112 13.389 13.8001V17.4668Z" fill="#9CA3AF"/>
</g>
<defs>
<clipPath id="clip0_6638_149228">
<rect width="20" height="20" fill="white" transform="translate(0 0.800049)"/>
</clipPath>
</defs>
</svg>
