<svg width="16" height="16" viewBox="0 0 16 16" fill="none" xmlns="http://www.w3.org/2000/svg">
<path d="M2.82683 8.16652C2.56323 7.90467 2.35439 7.59298 2.21246 7.24961C2.07054 6.90624 1.99837 6.53806 2.00016 6.16652C2.00016 5.41507 2.29867 4.6944 2.83003 4.16305C3.36138 3.63169 4.08205 3.33318 4.8335 3.33318C5.88683 3.33318 6.80683 3.90652 7.2935 4.75985H8.04016C8.28757 4.32589 8.64557 3.96524 9.07769 3.71463C9.50981 3.46403 10.0006 3.33241 10.5002 3.33318C11.2516 3.33318 11.9723 3.63169 12.5036 4.16305C13.035 4.6944 13.3335 5.41507 13.3335 6.16652C13.3335 6.94652 13.0002 7.66652 12.5068 8.16652L7.66683 12.9998L2.82683 8.16652ZM12.9735 8.63985C13.6068 7.99985 14.0002 7.13318 14.0002 6.16652C14.0002 5.23826 13.6314 4.34802 12.975 3.69164C12.3187 3.03526 11.4284 2.66652 10.5002 2.66652C9.3335 2.66652 8.30016 3.23318 7.66683 4.11318C7.34356 3.66418 6.9179 3.29873 6.42515 3.04713C5.9324 2.79554 5.38676 2.66506 4.8335 2.66652C3.90524 2.66652 3.015 3.03526 2.35862 3.69164C1.70225 4.34802 1.3335 5.23826 1.3335 6.16652C1.3335 7.13318 1.72683 7.99985 2.36016 8.63985L7.66683 13.9465L12.9735 8.63985Z" fill="#9CA3AF"/>
</svg>
