<svg width="24" height="22" viewBox="0 0 24 22" fill="none" xmlns="http://www.w3.org/2000/svg">
<path d="M11.999 0.849609C15.0798 0.849609 17.869 2.14414 19.8857 4.23535L20.2549 4.63672C22.0536 6.6879 23.1504 9.41286 23.1504 12.4014C23.1504 13.6878 22.9458 14.928 22.5684 16.0879L22.3955 16.5801C21.8904 17.9247 21.1497 19.1491 20.2246 20.1963V20.1973C19.9487 20.5089 19.6337 20.7468 19.2832 20.9072H19.2822C18.9283 21.0684 18.5445 21.1504 18.1387 21.1504H5.86133C5.45549 21.1504 5.07168 21.0684 4.71777 20.9072H4.7168C4.41014 20.7669 4.12959 20.5673 3.87988 20.3105L3.77539 20.1963C2.96521 19.28 2.29557 18.2286 1.80371 17.0791L1.60449 16.5801C1.1172 15.2815 0.849623 13.8719 0.849609 12.4014C0.849609 9.33944 2.00231 6.55654 3.88086 4.48926H3.86719L4.1123 4.23535C6.12911 2.14512 8.91831 0.849662 11.999 0.849609ZM12.667 2.69434C12.667 3.06668 12.3743 3.37891 12.001 3.37891C11.6289 3.3789 11.335 3.06796 11.335 2.69434V2.24414C10.0275 2.33511 8.79049 2.69053 7.67383 3.26074L7.89453 3.65625L7.94824 3.78125C8.03022 4.03716 7.95763 4.32238 7.75977 4.50293L7.65039 4.58398C7.36973 4.75124 7.02347 4.68288 6.81934 4.44434L6.74121 4.33105L6.52734 3.94824C6.14261 4.21656 5.77582 4.50965 5.43262 4.83008L5.05859 5.19824C4.60762 5.66567 4.2018 6.17961 3.84473 6.73047L4.22168 6.95605L4.33105 7.03711C4.56126 7.24784 4.62144 7.60052 4.46582 7.88379V7.88477C4.28461 8.21117 3.87808 8.32732 3.55762 8.1377L3.55664 8.13672L3.18555 7.91504C2.63551 9.07474 2.29313 10.3584 2.20605 11.7158H2.63574C3.00783 11.7158 3.30171 12.0268 3.30176 12.4004C3.30176 12.7728 3.0091 13.0859 2.63574 13.0859H2.20508C2.27238 14.1414 2.492 15.1513 2.84473 16.0908L3.03711 16.5693C3.08334 16.6762 3.13385 16.7809 3.18359 16.8857L3.55371 16.665L3.67676 16.6074C3.97222 16.5048 4.30454 16.6286 4.46484 16.915L4.51953 17.04C4.61619 17.3388 4.50177 17.6783 4.22363 17.8457H4.22266L3.8418 18.0732C4.11782 18.4999 4.42319 18.9046 4.75684 19.2822L4.87207 19.4004C4.99047 19.5104 5.11956 19.5966 5.25684 19.6592L5.39453 19.7129C5.53688 19.7591 5.69284 19.7832 5.86133 19.7832H18.1387C18.3065 19.7832 18.4623 19.7593 18.6055 19.7129L18.7441 19.6582C18.927 19.5748 19.0947 19.4503 19.2432 19.2822L19.5127 18.9648C19.7434 18.6811 19.9568 18.3824 20.1572 18.0732L19.7773 17.8457C19.46 17.6555 19.3546 17.2385 19.5352 16.915L19.6143 16.8027C19.8189 16.5647 20.1667 16.4968 20.4473 16.665L20.8174 16.8867C20.9405 16.6271 21.0563 16.3628 21.1572 16.0918V16.0908L21.2891 15.7178C21.5648 14.8858 21.7383 14.0035 21.7969 13.0859H21.3662C20.9941 13.0859 20.7002 12.774 20.7002 12.4004C20.7002 12.0281 20.9929 11.7159 21.3662 11.7158H21.7959C21.7088 10.3582 21.3656 9.0748 20.8154 7.91504L20.4453 8.13672H20.4443C20.1637 8.30383 19.8178 8.23607 19.6143 7.99707L19.5361 7.88477C19.3566 7.56115 19.4621 7.14614 19.7803 6.95605L20.1562 6.73047C19.8955 6.32772 19.6097 5.94474 19.2979 5.58594L18.9434 5.19824C18.4951 4.73363 18.0012 4.31651 17.4736 3.94824L17.2607 4.33008L17.2617 4.33105C17.0804 4.65783 16.6737 4.77348 16.3525 4.58398H16.3516C16.034 4.39466 15.9292 3.97944 16.1074 3.65625H16.1084L16.3271 3.25977C15.21 2.68989 13.974 2.33509 12.667 2.24414V2.69434ZM15.1309 16.5684C15.503 16.5684 15.7969 16.8802 15.7969 17.2539C15.7969 17.6263 15.5042 17.9385 15.1309 17.9385H8.86914C8.49714 17.9383 8.20314 17.6275 8.20312 17.2539C8.20312 16.8816 8.4959 16.5685 8.86914 16.5684H15.1309ZM14.9785 5.70898C15.153 5.50474 15.4324 5.42581 15.6855 5.51172L15.8096 5.56836L15.8105 5.56934L15.9189 5.65039C16.1492 5.86091 16.2103 6.21339 16.0547 6.49609L16.0537 6.49707L13.915 10.3359L13.958 10.3779L13.959 10.3789L14.1367 10.582C14.5307 11.0768 14.7676 11.7111 14.7676 12.4004C14.7676 13.0902 14.532 13.7241 14.1377 14.2188L13.959 14.4219C13.4585 14.9396 12.7659 15.2617 12.001 15.2617C11.3309 15.2617 10.7171 15.0158 10.2393 14.6064L10.043 14.4219C9.5434 13.9041 9.23438 13.188 9.23438 12.4004C9.2344 11.6121 9.5424 10.8968 10.043 10.3789L10.2402 10.1943C10.7184 9.7859 11.3318 9.53908 12.001 9.53906C12.2664 9.53906 12.5234 9.57955 12.7666 9.65234L14.9004 5.82129L14.9785 5.70898ZM12 10.9082C11.6545 10.9083 11.3373 11.0344 11.0889 11.2471L10.9873 11.3438C10.7267 11.6139 10.5645 11.987 10.5645 12.4014C10.5645 12.8157 10.7267 13.1888 10.9873 13.459L11.0889 13.5557C11.3372 13.7682 11.6546 13.8945 12 13.8945C12.3949 13.8945 12.7531 13.7291 13.0137 13.459L13.1064 13.3525C13.3119 13.0945 13.4355 12.7638 13.4355 12.4014C13.4355 12.0387 13.3121 11.7074 13.1064 11.4492L13.0137 11.3438C12.7531 11.0737 12.3949 10.9082 12 10.9082Z" fill="#9CA3AF" stroke="#9CA3AF" stroke-width="0.3"/>
</svg>
