<svg width="20" height="21" viewBox="0 0 20 21" fill="none" xmlns="http://www.w3.org/2000/svg">
<path d="M4.37762 14.55H10.6276C10.7838 14.5498 10.9344 14.608 11.0498 14.7132C11.1653 14.8184 11.2371 14.963 11.2512 15.1186C11.2653 15.2741 11.2207 15.4293 11.1261 15.5536C11.0315 15.6779 10.8938 15.7622 10.7401 15.79L10.6276 15.8H4.37762C4.22143 15.8003 4.0708 15.7421 3.95539 15.6369C3.83997 15.5317 3.76813 15.3871 3.75402 15.2315C3.73991 15.076 3.78455 14.9208 3.87914 14.7965C3.97374 14.6722 4.11143 14.5879 4.26512 14.56L4.37762 14.55ZM6.43512 7.23255C6.53869 7.1292 6.67523 7.06547 6.82096 7.05245C6.96669 7.03943 7.11237 7.07795 7.23262 7.1613L7.32012 7.2338L12.3176 12.2338C12.4267 12.3444 12.4907 12.4916 12.4972 12.6469C12.5036 12.8021 12.452 12.9541 12.3524 13.0734C12.2529 13.1926 12.1124 13.2705 11.9586 13.2918C11.8047 13.3132 11.6484 13.2764 11.5201 13.1888L11.4326 13.1163L6.43512 8.1163C6.31795 7.99909 6.25213 7.84015 6.25213 7.67442C6.25213 7.5087 6.31795 7.34975 6.43512 7.23255ZM14.3776 4.55005C14.5237 4.55029 14.6651 4.60169 14.7772 4.69531C14.8893 4.78893 14.9651 4.91887 14.9914 5.06255L15.0026 5.17505V11.425C15.0029 11.5812 14.9447 11.7319 14.8395 11.8473C14.7343 11.9627 14.5896 12.0345 14.4341 12.0486C14.2785 12.0628 14.1234 12.0181 13.9991 11.9235C13.8748 11.8289 13.7904 11.6912 13.7626 11.5375L13.7526 11.425V5.17505C13.7526 5.00929 13.8185 4.85032 13.9357 4.73311C14.0529 4.6159 14.2119 4.55005 14.3776 4.55005Z" fill="#9CA3AF"/>
</svg>
