<svg width="35" height="44" viewBox="0 0 35 44" fill="none" xmlns="http://www.w3.org/2000/svg">
<path d="M7.52002 19V16.5C7.52002 14.01 9.53002 12 12.02 12H14.52" stroke="#9CA3AF" stroke-width="1.5" stroke-linecap="round" stroke-linejoin="round"/>
<path d="M20.52 12H23.02C25.51 12 27.52 14.01 27.52 16.5V19" stroke="#9CA3AF" stroke-width="1.5" stroke-linecap="round" stroke-linejoin="round"/>
<path d="M27.52 26V27.5C27.52 29.99 25.51 32 23.02 32H21.52" stroke="#9CA3AF" stroke-width="1.5" stroke-linecap="round" stroke-linejoin="round"/>
<path d="M14.52 32H12.02C9.53002 32 7.52002 29.99 7.52002 27.5V25" stroke="#9CA3AF" stroke-width="1.5" stroke-linecap="round" stroke-linejoin="round"/>
<path d="M22.52 24.5C22.52 26.5 21.52 27.5 19.52 27.5H15.52C13.52 27.5 12.52 26.5 12.52 24.5V19.5C12.52 17.5 13.52 16.5 15.52 16.5H19.52C21.52 16.5 22.52 17.5 22.52 19.5V24.5Z" stroke="#9CA3AF" stroke-width="1.5" stroke-linecap="round" stroke-linejoin="round"/>
<path d="M24.52 22H10.52" stroke="#9CA3AF" stroke-width="1.5" stroke-linecap="round" stroke-linejoin="round"/>
</svg>
