<svg width="35" height="44" viewBox="0 0 35 44" fill="none" xmlns="http://www.w3.org/2000/svg">
<path d="M16.4702 23.92C18.0682 24.534 19.0302 25.507 20.2402 27M16.4702 23.92C14.5272 23.173 13.0652 22.978 11.7402 23M16.4702 23.92C17.9852 22.254 18.9802 21.053 22.7402 20.5" stroke="#9CA3AF" stroke-width="1.5" stroke-linecap="round" stroke-linejoin="round"/>
<path d="M17.2402 28C20.5539 28 23.2402 25.3137 23.2402 22C23.2402 18.6863 20.5539 16 17.2402 16C13.9265 16 11.2402 18.6863 11.2402 22C11.2402 25.3137 13.9265 28 17.2402 28Z" stroke="#9CA3AF" stroke-width="1.5" stroke-linecap="round" stroke-linejoin="round"/>
<path d="M27.2402 22C27.2411 23.3764 26.9579 24.7381 26.4082 26M17.2402 32C18.5537 32.0016 19.8545 31.7437 21.068 31.241C22.2815 30.7384 23.3837 30.0009 24.3112 29.071M7.24024 22C7.23862 20.6865 7.49655 19.3857 7.9992 18.1722C8.50185 16.9588 9.23932 15.8566 10.1692 14.929M17.2402 12C15.8639 11.9991 14.5021 12.2823 13.2402 12.832M13.2402 31.168C10.9283 30.1574 9.0828 28.3119 8.07224 26M21.0722 13C23.3841 14.0106 25.2297 15.8561 26.2402 18.168" stroke="#9CA3AF" stroke-width="1.5" stroke-linecap="round" stroke-linejoin="round"/>
</svg>
