<svg width="25" height="24" viewBox="0 0 25 24" fill="none" xmlns="http://www.w3.org/2000/svg">
<path d="M22.044 11.045C22.348 11.471 22.5 11.685 22.5 12C22.5 12.316 22.348 12.529 22.044 12.955C20.678 14.871 17.189 19 12.5 19C7.81 19 4.322 14.87 2.956 12.955C2.652 12.529 2.5 12.315 2.5 12C2.5 11.684 2.652 11.471 2.956 11.045C4.322 9.129 7.811 5 12.5 5C17.19 5 20.678 9.13 22.044 11.045Z" stroke="white" stroke-width="2.25" stroke-linecap="round" stroke-linejoin="round"/>
<path d="M15.5 12C15.5 11.2044 15.1839 10.4413 14.6213 9.87868C14.0587 9.31607 13.2956 9 12.5 9C11.7044 9 10.9413 9.31607 10.3787 9.87868C9.81607 10.4413 9.5 11.2044 9.5 12C9.5 12.7956 9.81607 13.5587 10.3787 14.1213C10.9413 14.6839 11.7044 15 12.5 15C13.2956 15 14.0587 14.6839 14.6213 14.1213C15.1839 13.5587 15.5 12.7956 15.5 12Z" stroke="white" stroke-width="2.25" stroke-linecap="round" stroke-linejoin="round"/>
</svg>
