<svg width="24" height="24" viewBox="0 0 24 24" fill="none" xmlns="http://www.w3.org/2000/svg">
<path d="M11.9998 13.1429C12.631 13.1429 13.1426 12.6312 13.1426 12C13.1426 11.3689 12.631 10.8572 11.9998 10.8572C11.3686 10.8572 10.8569 11.3689 10.8569 12C10.8569 12.6312 11.3686 13.1429 11.9998 13.1429Z" fill="#9CA3AF"/>
<path d="M11.9998 7.42854C12.631 7.42854 13.1426 6.91686 13.1426 6.28568C13.1426 5.6545 12.631 5.14282 11.9998 5.14282C11.3686 5.14282 10.8569 5.6545 10.8569 6.28568C10.8569 6.91686 11.3686 7.42854 11.9998 7.42854Z" fill="#9CA3AF"/>
<path d="M11.9998 18.857C12.631 18.857 13.1426 18.3453 13.1426 17.7141C13.1426 17.083 12.631 16.5713 11.9998 16.5713C11.3686 16.5713 10.8569 17.083 10.8569 17.7141C10.8569 18.3453 11.3686 18.857 11.9998 18.857Z" fill="#9CA3AF"/>
</svg>
