<svg width="20" height="21" viewBox="0 0 20 21" fill="none" xmlns="http://www.w3.org/2000/svg">
<path d="M13.4641 4.92973C12.5027 3.91564 11.4204 3.02354 10.2414 2.27349C10.1685 2.22968 10.0851 2.20654 10 2.20654C9.91495 2.20654 9.8315 2.22968 9.75859 2.27349C8.57961 3.02354 7.49728 3.91564 6.53594 4.92973C4.40625 7.16567 3.28125 9.62817 3.28125 12.05C3.28125 13.832 3.98912 15.5409 5.24913 16.8009C6.50914 18.0609 8.21808 18.7688 10 18.7688C11.7819 18.7688 13.4909 18.0609 14.7509 16.8009C16.0109 15.5409 16.7188 13.832 16.7188 12.05C16.7188 9.62817 15.5938 7.16567 13.4641 4.92973ZM7.34375 15.175C7.34375 12.8469 9.30547 11.2368 10 10.7391C10.6961 11.2352 12.6562 12.8383 12.6562 15.175C12.6562 15.8562 12.3949 16.5114 11.9261 17.0055C11.4574 17.4997 10.8169 17.7953 10.1367 17.8313H9.86328C9.18309 17.7953 8.54263 17.4997 8.07388 17.0055C7.60512 16.5114 7.3438 15.8562 7.34375 15.175ZM13.1578 16.8891C13.4446 16.3634 13.5945 15.7739 13.5938 15.175C13.5938 11.8235 10.3781 9.85552 10.2414 9.77349C10.1685 9.72968 10.0851 9.70654 10 9.70654C9.91495 9.70654 9.8315 9.72968 9.75859 9.77349C9.62188 9.85552 6.40625 11.8235 6.40625 15.175C6.40551 15.7739 6.55542 16.3634 6.84219 16.8891C6.03713 16.3641 5.37566 15.6468 4.91759 14.8018C4.45953 13.9569 4.21934 13.0111 4.21875 12.05C4.21875 7.37583 8.87656 3.98286 10 3.23286C11.1242 3.98286 15.7812 7.37348 15.7812 12.05C15.7807 13.0111 15.5405 13.9569 15.0824 14.8018C14.6243 15.6468 13.9629 16.3641 13.1578 16.8891Z" fill="#9CA3AF"/>
</svg>
