<svg width="24" height="24" viewBox="0 0 24 24" fill="none" xmlns="http://www.w3.org/2000/svg">
<path d="M0.103339 11.8527C0.102683 13.9417 0.652574 15.981 1.698 17.7786L0.00305176 23.9207L6.33623 22.2726C8.08122 23.2168 10.0459 23.7147 12.0451 23.7154H12.0502C18.6343 23.7154 23.9941 18.3975 23.997 11.8621C23.9981 8.69488 22.7564 5.71656 20.501 3.47609C18.2453 1.23591 15.246 0.00130233 12.0502 0C5.46504 0 0.105963 5.31721 0.103339 11.8527ZM3.87497 17.469L3.6385 17.0965C2.64444 15.5277 2.11976 13.7149 2.12051 11.8534C2.12258 6.4213 6.57682 2.00186 12.054 2.00186C14.7064 2.00298 17.1992 3.02921 19.0741 4.89116C20.9489 6.7533 21.9805 9.22865 21.9799 11.8614C21.9774 17.2935 17.5231 21.7135 12.0502 21.7135H12.0463C10.2643 21.7126 8.51658 21.2376 6.9924 20.34L6.62968 20.1265L2.87145 21.1045L3.87497 17.469Z" fill="url(#paint0_linear_6724_122312)"/>
<defs>
<linearGradient id="paint0_linear_6724_122312" x1="1199.7" y1="2392.07" x2="1199.7" y2="0" gradientUnits="userSpaceOnUse">
<stop stop-color="#F9F9F9"/>
<stop offset="1" stop-color="white"/>
</linearGradient>
</defs>
</svg>
